<svg width="294" height="34" viewBox="0 0 294 34" fill="none" xmlns="http://www.w3.org/2000/svg">
<path d="M27.435 13.505C27.435 14.5783 27.3067 15.6283 27.05 16.655C26.8167 17.6817 26.4433 18.615 25.93 19.455C25.4167 20.2717 24.7867 20.9367 24.04 21.45C23.2933 21.94 22.4067 22.185 21.38 22.185C20.3067 22.185 19.455 21.8817 18.825 21.275C18.2183 20.645 17.845 19.9333 17.705 19.14H17.53C17.11 20.0033 16.4917 20.7267 15.675 21.31C14.8583 21.8933 13.8317 22.185 12.595 22.185C10.8217 22.185 9.445 21.59 8.465 20.4C7.50833 19.21 7.03 17.635 7.03 15.675C7.03 14.135 7.33333 12.7817 7.94 11.615C8.54667 10.425 9.39833 9.49167 10.495 8.815C11.615 8.13833 12.9333 7.8 14.45 7.8C15.4767 7.8 16.48 7.89333 17.46 8.08C18.4633 8.24333 19.245 8.43 19.805 8.64L19.455 15.745C19.4317 16.165 19.42 16.4683 19.42 16.655C19.42 16.8183 19.42 16.935 19.42 17.005C19.42 18.2183 19.63 19.0233 20.05 19.42C20.4933 19.8167 21.0067 20.015 21.59 20.015C22.3133 20.015 22.92 19.7233 23.41 19.14C23.9233 18.5333 24.3083 17.74 24.565 16.76C24.845 15.7567 24.985 14.66 24.985 13.47C24.985 11.3 24.5417 9.46833 23.655 7.975C22.7917 6.45833 21.59 5.30333 20.05 4.51C18.5333 3.71667 16.8067 3.32 14.87 3.32C12.8867 3.32 11.125 3.635 9.585 4.265C8.045 4.895 6.75 5.78167 5.7 6.925C4.67333 8.06833 3.89167 9.42167 3.355 10.985C2.81833 12.525 2.55 14.2283 2.55 16.095C2.55 18.3817 2.95833 20.33 3.775 21.94C4.59167 23.5267 5.78167 24.74 7.345 25.58C8.93167 26.3967 10.8683 26.805 13.155 26.805C14.5783 26.805 15.9317 26.6417 17.215 26.315C18.5217 26.0117 19.6767 25.6733 20.68 25.3V27.68C19.6767 28.1 18.545 28.4383 17.285 28.695C16.0483 28.975 14.6717 29.115 13.155 29.115C10.4017 29.115 8.045 28.6017 6.085 27.575C4.125 26.5483 2.62 25.0783 1.57 23.165C0.543333 21.2283 0.0300001 18.9067 0.0300001 16.2C0.0300001 14.03 0.368333 12.0233 1.045 10.18C1.72167 8.31333 2.70167 6.70333 3.985 5.35C5.26833 3.97333 6.82 2.91166 8.64 2.165C10.4833 1.395 12.56 1.01 14.87 1.01C16.69 1.01 18.3583 1.30167 19.875 1.885C21.415 2.445 22.745 3.27333 23.865 4.37C25.0083 5.44333 25.8833 6.75 26.49 8.29C27.12 9.83 27.435 11.5683 27.435 13.505ZM9.76 15.745C9.76 17.2383 10.0517 18.3233 10.635 19C11.2417 19.6767 12.0467 20.015 13.05 20.015C14.3567 20.015 15.29 19.525 15.85 18.545C16.4333 17.565 16.7717 16.2933 16.865 14.73L17.075 10.355C16.7717 10.2617 16.3867 10.18 15.92 10.11C15.4533 10.04 14.975 10.005 14.485 10.005C13.3417 10.005 12.42 10.285 11.72 10.845C11.02 11.405 10.5183 12.1283 10.215 13.015C9.91167 13.8783 9.76 14.7883 9.76 15.745ZM32.0771 25.4702L31.7524 0.87793H39.4941L44.5356 9.43994L48.5859 0.87793H57.541L57.8999 26H49.355L49.2524 16.4468H48.7227L44.7749 24.1885L40.6733 16.4468L40.1606 16.481L40.2632 26H32.0771V25.4702ZM69.9482 0.82666L70.1533 14.9429C70.1533 15.3416 70.1818 15.729 70.2388 16.105C70.2957 16.4696 70.404 16.7943 70.5635 17.0791C70.7344 17.3525 70.9679 17.5804 71.2642 17.7627C71.5718 17.9336 71.9819 18.019 72.4946 18.019C73.0757 18.019 73.5257 17.8937 73.8447 17.6431C74.1637 17.381 74.3802 17.0848 74.4941 16.7544C74.6309 16.3898 74.6992 15.974 74.6992 15.5068L74.4941 0.87793H82.1504C82.1732 3.73763 82.2074 6.33529 82.2529 8.6709C82.2529 9.6735 82.2586 10.6647 82.27 11.6445C82.2814 12.6243 82.2928 13.5187 82.3042 14.3276C82.327 15.1366 82.3441 15.8258 82.3555 16.3955C82.3669 16.9652 82.3726 17.3298 82.3726 17.4893C82.3726 17.7057 82.3726 18.0646 82.3726 18.5659C82.3726 19.0672 82.2871 19.6312 82.1162 20.2578C81.9567 20.8844 81.6833 21.5339 81.2959 22.2061C80.9085 22.8669 80.3389 23.4764 79.5869 24.0347C78.8464 24.5929 77.8836 25.0601 76.6987 25.436C75.5252 25.812 74.0669 26.0114 72.3237 26.0342C71.0135 26.057 69.8628 25.9772 68.8716 25.7949C67.8804 25.6012 67.0259 25.3449 66.3081 25.0259C65.6017 24.6955 65.0093 24.3195 64.5308 23.8979C64.0522 23.4764 63.6763 23.0435 63.4028 22.5991C62.6965 21.5737 62.3547 20.3831 62.3774 19.0273L62.1382 0.87793H69.9482V0.82666ZM104.538 15.1821C104.743 15.6493 104.931 16.2531 105.102 16.9937C105.284 17.7228 105.307 18.5317 105.17 19.4204C105.045 20.3091 104.698 21.2376 104.128 22.2061C103.558 23.1745 102.618 24.1258 101.308 25.0601C101.217 25.1284 101.132 25.1911 101.052 25.248C100.972 25.305 100.887 25.3563 100.795 25.4019C100.647 25.493 100.516 25.5728 100.402 25.6411C100.288 25.6981 100.174 25.7493 100.061 25.7949C99.9352 25.8405 99.8213 25.8804 99.7188 25.9146C99.6162 25.9487 99.508 25.9886 99.394 26.0342C98.0838 26.4557 96.728 26.6665 95.3267 26.6665C93.3898 26.6665 91.584 26.2905 89.9092 25.5386C88.2458 24.7752 86.8102 23.7271 85.6025 22.394L90.1484 17.9165C90.6383 18.4748 91.208 18.9476 91.8574 19.335C92.5182 19.7223 93.2189 19.9844 93.9595 20.1211C94.6659 20.235 95.3893 20.1951 96.1299 20.0015C96.8818 19.7964 97.3945 19.4603 97.668 18.9932C97.8161 18.7653 97.8901 18.5716 97.8901 18.4121C97.8901 18.2412 97.8503 18.0931 97.7705 17.9678C97.7021 17.8424 97.6224 17.7513 97.5312 17.6943C97.4401 17.626 97.3831 17.5804 97.3604 17.5576C96.5173 17.2386 95.6571 16.9481 94.7798 16.686C93.9139 16.4126 93.0594 16.1335 92.2163 15.8486C91.5327 15.6208 90.8776 15.3872 90.251 15.1479C89.6243 14.8973 89.0433 14.6068 88.5078 14.2764C87.7103 13.7865 87.078 13.2168 86.6108 12.5674L86.5767 12.5332C86.4855 12.3851 86.4001 12.2427 86.3203 12.106C86.2406 11.9692 86.1722 11.8154 86.1152 11.6445C85.9102 11.1774 85.7108 10.5793 85.5171 9.8501C85.3348 9.10954 85.3063 8.30062 85.4316 7.42334C85.5684 6.53467 85.9272 5.60042 86.5083 4.62061C87.0894 3.64079 88.035 2.68376 89.3452 1.74951C89.5959 1.55583 89.818 1.40771 90.0117 1.30518C90.2168 1.20264 90.4048 1.11719 90.5757 1.04883H90.6099C90.7238 1.00326 90.8263 0.963379 90.9175 0.929199C91.0086 0.89502 91.1169 0.849447 91.2422 0.79248C92.5182 0.382324 93.8797 0.177246 95.3267 0.177246C97.104 0.177246 98.7731 0.496257 100.334 1.13428C101.895 1.7723 103.273 2.66667 104.47 3.81738L99.8726 8.29492C99.1092 7.58854 98.2148 7.09863 97.1895 6.8252C97.1667 6.8252 97.1496 6.8195 97.1382 6.80811C97.1268 6.79671 97.0926 6.79102 97.0356 6.79102C96.6938 6.68848 96.3179 6.6486 95.9077 6.67139C95.4976 6.68278 95.1045 6.73405 94.7285 6.8252C94.3639 6.91634 94.0278 7.05306 93.7202 7.23535C93.4126 7.40625 93.179 7.60563 93.0195 7.8335C92.8828 8.07275 92.8145 8.27783 92.8145 8.44873C92.8145 8.61963 92.8486 8.76774 92.917 8.89307C92.9854 9.007 93.0651 9.09814 93.1562 9.1665C93.2474 9.23486 93.3158 9.26904 93.3613 9.26904C94.0449 9.53109 94.7342 9.77035 95.4292 9.98682C96.1356 10.2033 96.8249 10.4312 97.4971 10.6704C98.363 10.9325 99.1833 11.2173 99.958 11.5249C100.744 11.8211 101.462 12.1686 102.111 12.5674C102.932 13.0573 103.575 13.627 104.042 14.2764C104.042 14.2764 104.054 14.2992 104.077 14.3447C104.213 14.5498 104.367 14.8289 104.538 15.1821ZM130.668 0.87793L120.158 13.4048L130.737 26H122.26L116.484 19.1128V26H108.999V0.87793H116.484V7.69678L122.192 0.87793H130.412H130.668ZM141.247 18.5488H149.587V26H132.497V0.87793H141.247V18.5488ZM171.359 7.30371H161.14V10.3628H170.146V15.7803H161.14V19.1128H171.359V26H153.347V0.87793H171.359V7.30371ZM192.893 15.1821C193.098 15.6493 193.286 16.2531 193.457 16.9937C193.639 17.7228 193.662 18.5317 193.525 19.4204C193.4 20.3091 193.052 21.2376 192.482 22.2061C191.913 23.1745 190.973 24.1258 189.663 25.0601C189.571 25.1284 189.486 25.1911 189.406 25.248C189.326 25.305 189.241 25.3563 189.15 25.4019C189.002 25.493 188.871 25.5728 188.757 25.6411C188.643 25.6981 188.529 25.7493 188.415 25.7949C188.29 25.8405 188.176 25.8804 188.073 25.9146C187.971 25.9487 187.862 25.9886 187.749 26.0342C186.438 26.4557 185.083 26.6665 183.681 26.6665C181.744 26.6665 179.938 26.2905 178.264 25.5386C176.6 24.7752 175.165 23.7271 173.957 22.394L178.503 17.9165C178.993 18.4748 179.562 18.9476 180.212 19.335C180.873 19.7223 181.573 19.9844 182.314 20.1211C183.02 20.235 183.744 20.1951 184.484 20.0015C185.236 19.7964 185.749 19.4603 186.022 18.9932C186.171 18.7653 186.245 18.5716 186.245 18.4121C186.245 18.2412 186.205 18.0931 186.125 17.9678C186.057 17.8424 185.977 17.7513 185.886 17.6943C185.795 17.626 185.738 17.5804 185.715 17.5576C184.872 17.2386 184.012 16.9481 183.134 16.686C182.268 16.4126 181.414 16.1335 180.571 15.8486C179.887 15.6208 179.232 15.3872 178.605 15.1479C177.979 14.8973 177.398 14.6068 176.862 14.2764C176.065 13.7865 175.432 13.2168 174.965 12.5674L174.931 12.5332C174.84 12.3851 174.755 12.2427 174.675 12.106C174.595 11.9692 174.527 11.8154 174.47 11.6445C174.265 11.1774 174.065 10.5793 173.872 9.8501C173.689 9.10954 173.661 8.30062 173.786 7.42334C173.923 6.53467 174.282 5.60042 174.863 4.62061C175.444 3.64079 176.389 2.68376 177.7 1.74951C177.95 1.55583 178.173 1.40771 178.366 1.30518C178.571 1.20264 178.759 1.11719 178.93 1.04883H178.964C179.078 1.00326 179.181 0.963379 179.272 0.929199C179.363 0.89502 179.471 0.849447 179.597 0.79248C180.873 0.382324 182.234 0.177246 183.681 0.177246C185.458 0.177246 187.128 0.496257 188.688 1.13428C190.249 1.7723 191.628 2.66667 192.824 3.81738L188.227 8.29492C187.464 7.58854 186.569 7.09863 185.544 6.8252C185.521 6.8252 185.504 6.8195 185.493 6.80811C185.481 6.79671 185.447 6.79102 185.39 6.79102C185.048 6.68848 184.672 6.6486 184.262 6.67139C183.852 6.68278 183.459 6.73405 183.083 6.8252C182.718 6.91634 182.382 7.05306 182.075 7.23535C181.767 7.40625 181.534 7.60563 181.374 7.8335C181.237 8.07275 181.169 8.27783 181.169 8.44873C181.169 8.61963 181.203 8.76774 181.271 8.89307C181.34 9.007 181.42 9.09814 181.511 9.1665C181.602 9.23486 181.67 9.26904 181.716 9.26904C182.399 9.53109 183.089 9.77035 183.784 9.98682C184.49 10.2033 185.179 10.4312 185.852 10.6704C186.717 10.9325 187.538 11.2173 188.312 11.5249C189.099 11.8211 189.816 12.1686 190.466 12.5674C191.286 13.0573 191.93 13.627 192.397 14.2764C192.397 14.2764 192.408 14.2992 192.431 14.3447C192.568 14.5498 192.722 14.8289 192.893 15.1821ZM220.493 20.6509C219.319 22.4624 217.77 23.9207 215.844 25.0259C213.919 26.1196 211.788 26.6665 209.453 26.6665C207.641 26.6665 205.938 26.3247 204.343 25.6411C202.759 24.9461 201.375 24.0062 200.19 22.8213C199.016 21.625 198.088 20.235 197.404 18.6514C196.721 17.0677 196.379 15.3644 196.379 13.5415C196.379 11.7186 196.721 10.0153 197.404 8.43164C198.088 6.84798 199.016 5.4694 200.19 4.2959C201.375 3.111 202.759 2.17676 204.343 1.49316C205.938 0.798177 207.641 0.450684 209.453 0.450684C210.786 0.450684 212.062 0.638672 213.281 1.01465C214.511 1.37923 215.639 1.90332 216.665 2.58691C217.69 3.25911 218.613 4.06803 219.433 5.01367C220.253 5.95931 220.92 7.00749 221.433 8.1582L214.46 11.2686C214.016 10.2887 213.349 9.5083 212.46 8.92725C211.583 8.3348 210.581 8.03857 209.453 8.03857C208.689 8.03857 207.972 8.18669 207.299 8.48291C206.639 8.77913 206.063 9.1722 205.573 9.66211C205.083 10.152 204.69 10.7274 204.394 11.3882C204.109 12.049 203.967 12.7668 203.967 13.5415C203.967 14.3049 204.109 15.0226 204.394 15.6948C204.69 16.3556 205.083 16.9367 205.573 17.438C206.063 17.9393 206.639 18.3381 207.299 18.6343C207.972 18.9191 208.689 19.0615 209.453 19.0615C210.512 19.0615 211.469 18.7938 212.324 18.2583C213.19 17.7228 213.856 17.0278 214.323 16.1733L220.493 20.6509ZM236.779 0.519043C238.602 0.519043 240.306 0.866536 241.889 1.56152C243.473 2.24512 244.857 3.18506 246.042 4.38135C247.238 5.56624 248.178 6.95052 248.862 8.53418C249.557 10.1178 249.904 11.8211 249.904 13.644C249.904 15.467 249.557 17.1702 248.862 18.7539C248.178 20.3376 247.238 21.7275 246.042 22.9238C244.857 24.1087 243.473 25.0487 241.889 25.7437C240.306 26.4272 238.602 26.769 236.779 26.769C234.956 26.769 233.253 26.4272 231.669 25.7437C230.086 25.0487 228.696 24.1087 227.5 22.9238C226.315 21.7275 225.375 20.3376 224.68 18.7539C223.996 17.1702 223.654 15.467 223.654 13.644C223.654 11.8211 223.996 10.1178 224.68 8.53418C225.375 6.95052 226.315 5.56624 227.5 4.38135C228.696 3.18506 230.086 2.24512 231.669 1.56152C233.253 0.866536 234.956 0.519043 236.779 0.519043ZM236.779 19.1812C237.554 19.1812 238.272 19.033 238.933 18.7368C239.593 18.4406 240.174 18.0418 240.676 17.5405C241.177 17.0392 241.576 16.4582 241.872 15.7974C242.168 15.1366 242.316 14.4188 242.316 13.644C242.316 12.8693 242.168 12.1515 241.872 11.4907C241.576 10.8299 241.177 10.2489 240.676 9.74756C240.174 9.24626 239.593 8.84749 238.933 8.55127C238.272 8.25505 237.554 8.10693 236.779 8.10693C236.005 8.10693 235.287 8.25505 234.626 8.55127C233.965 8.84749 233.39 9.24626 232.9 9.74756C232.41 10.2489 232.017 10.8299 231.721 11.4907C231.424 12.1515 231.276 12.8693 231.276 13.644C231.276 14.4188 231.424 15.1366 231.721 15.7974C232.017 16.4582 232.41 17.0392 232.9 17.5405C233.39 18.0418 233.965 18.4406 234.626 18.7368C235.287 19.033 236.005 19.1812 236.779 19.1812ZM260.415 26H252.536L252.604 0.87793H260.38L260.415 26ZM282.785 0.87793H291.433V26H282.648L273.3 14.208V26H265.183V0.87793H274.343L282.785 11.2686V0.87793Z" fill="#FF2D84"/>
<path d="M29.4795 30.9902H293.603V33.5537H29.4795V30.9902Z" fill="#FF2D84"/>
</svg>
