<svg width="275" height="65" viewBox="0 0 275 65" fill="none" xmlns="http://www.w3.org/2000/svg">
<g clip-path="url(#clip0_79_168)">
<g filter="url(#filter0_d_79_168)">
<path d="M5.97862 3.9936C6.09655 2.68835 7.19319 1.68848 8.50679 1.68848H271.376C272.869 1.68848 274.039 2.9659 273.904 4.44829L269.022 58.4923C268.904 59.7976 267.807 60.7975 266.494 60.7975H3.62385C2.13193 60.7975 0.961721 59.52 1.09566 58.0377L5.97862 3.9936Z" fill="#00C0C0"/>
<path d="M271.376 1.18188H8.50671C6.93038 1.18188 5.61441 2.38173 5.47289 3.94802L0.589937 57.992C0.429214 59.7709 1.83346 61.3038 3.62377 61.3038H266.494C268.07 61.3038 269.386 60.104 269.527 58.5377L274.41 4.49367C274.571 2.7148 273.166 1.18188 271.376 1.18188Z" stroke="#0B0B0B" stroke-width="1.2"/>
</g>
<mask id="mask0_79_168" style="mask-type:alpha" maskUnits="userSpaceOnUse" x="2" y="1" width="271" height="60">
<path d="M5.07603 13.9822C5.70501 7.02085 11.5537 1.68823 18.5599 1.68823H259.34C267.298 1.68823 273.539 8.50116 272.824 16.4073L269.924 48.5033C269.295 55.4646 263.447 60.7972 256.441 60.7972H15.6599C7.70299 60.7972 1.46179 53.9843 2.17611 46.0782L5.07603 13.9822Z" fill="white"/>
</mask>
<g mask="url(#mask0_79_168)">
<path d="M65.4282 41.3635V20.6099H72.2135C74.4101 20.6099 76.3182 21.0556 77.9378 21.9471C79.5759 22.8199 80.8418 24.0364 81.7353 25.5964C82.6288 27.1378 83.0756 28.9299 83.0756 30.9728C83.0756 32.9971 82.6288 34.7985 81.7353 36.3771C80.8418 37.9371 79.5759 39.1628 77.9378 40.0542C76.3182 40.9271 74.4101 41.3635 72.2135 41.3635H65.4282ZM69.2258 38.0206H72.2973C73.7121 38.0206 74.9314 37.7328 75.9552 37.1571C76.9977 36.5628 77.8075 35.7456 78.3845 34.7056C78.9616 33.6471 79.2502 32.4028 79.2502 30.9728C79.2502 29.5242 78.9616 28.2799 78.3845 27.2399C77.8075 26.1999 76.9977 25.3921 75.9552 24.8164C74.9314 24.2406 73.7121 23.9528 72.2973 23.9528H69.2258V38.0206ZM84.9811 41.3635V20.6099H98.803V23.9528H88.7786V29.2735H98.2445V32.6164H88.7786V38.0206H98.803V41.3635H84.9811ZM98.7674 41.3635L105.581 30.9171L98.8233 20.6099H103.179L108.708 29.0506H106.698L112.198 20.6099H116.554L109.825 30.9171L116.61 41.3635H112.254L106.698 32.8113H108.708L103.123 41.3635H98.7674ZM125.242 41.6978C123.92 41.6978 122.692 41.4563 121.556 40.9735C120.439 40.4906 119.471 39.8221 118.652 38.9678C117.852 38.0949 117.265 37.0828 116.893 35.9313L120.048 34.5664C120.551 35.7549 121.277 36.6928 122.226 37.3799C123.176 38.0485 124.246 38.3828 125.437 38.3828C126.108 38.3828 126.685 38.2806 127.169 38.0763C127.671 37.8535 128.053 37.5563 128.313 37.1849C128.593 36.8135 128.732 36.3678 128.732 35.8478C128.732 35.2349 128.546 34.7335 128.174 34.3435C127.82 33.9349 127.28 33.6192 126.554 33.3963L122.561 32.1149C120.942 31.6135 119.722 30.8613 118.903 29.8585C118.084 28.8556 117.675 27.6764 117.675 26.3206C117.675 25.1321 117.963 24.0828 118.54 23.1728C119.136 22.2628 119.955 21.5571 120.998 21.0556C122.059 20.5356 123.269 20.2756 124.628 20.2756C125.875 20.2756 127.02 20.4985 128.062 20.9442C129.105 21.3714 129.998 21.9749 130.743 22.7549C131.506 23.5163 132.074 24.4171 132.446 25.4571L129.319 26.8499C128.909 25.8099 128.295 25.0113 127.476 24.4542C126.657 23.8785 125.707 23.5906 124.628 23.5906C123.995 23.5906 123.436 23.7021 122.952 23.9249C122.468 24.1292 122.087 24.4264 121.807 24.8164C121.547 25.1878 121.416 25.6335 121.416 26.1535C121.416 26.7292 121.603 27.2399 121.975 27.6856C122.347 28.1128 122.915 28.4471 123.678 28.6885L127.504 29.8863C129.16 30.4249 130.398 31.1678 131.217 32.1149C132.055 33.0621 132.474 34.2321 132.474 35.6249C132.474 36.8135 132.167 37.8628 131.553 38.7728C130.938 39.6828 130.091 40.3978 129.012 40.9178C127.932 41.4378 126.675 41.6978 125.242 41.6978ZM144.549 41.6978C143.06 41.6978 141.683 41.4285 140.417 40.8899C139.17 40.3513 138.071 39.5992 137.122 38.6335C136.191 37.6678 135.465 36.5349 134.944 35.2349C134.423 33.9349 134.162 32.5142 134.162 30.9728C134.162 29.4314 134.413 28.0106 134.916 26.7106C135.437 25.3921 136.163 24.2592 137.094 23.3121C138.043 22.3463 139.151 21.6035 140.417 21.0835C141.683 20.5449 143.06 20.2756 144.549 20.2756C146.039 20.2756 147.37 20.5263 148.542 21.0278C149.734 21.5292 150.739 22.1978 151.558 23.0335C152.377 23.8506 152.964 24.7513 153.317 25.7356L149.911 27.3235C149.52 26.2835 148.859 25.4292 147.928 24.7606C146.997 24.0735 145.871 23.7299 144.549 23.7299C143.246 23.7299 142.092 24.0364 141.087 24.6492C140.1 25.2621 139.328 26.1071 138.769 27.1842C138.23 28.2613 137.96 29.5242 137.96 30.9728C137.96 32.4214 138.23 33.6935 138.769 34.7892C139.328 35.8664 140.1 36.7113 141.087 37.3242C142.092 37.9371 143.246 38.2435 144.549 38.2435C145.871 38.2435 146.997 37.9092 147.928 37.2406C148.859 36.5535 149.52 35.6899 149.911 34.6499L153.317 36.2378C152.964 37.2221 152.377 38.1321 151.558 38.9678C150.739 39.7849 149.734 40.4442 148.542 40.9456C147.37 41.4471 146.039 41.6978 144.549 41.6978ZM155.284 41.3635V20.6099H163.018C164.433 20.6099 165.68 20.8699 166.76 21.3899C167.858 21.8914 168.715 22.6342 169.329 23.6185C169.943 24.5842 170.251 25.7635 170.251 27.1563C170.251 28.5863 169.906 29.8028 169.217 30.8056C168.547 31.8085 167.635 32.5513 166.481 33.0342L171.256 41.3635H166.956L161.846 32.2542L164.303 33.7028H159.081V41.3635H155.284ZM159.081 30.3599H163.074C163.763 30.3599 164.359 30.2299 164.861 29.9699C165.364 29.6913 165.755 29.3106 166.034 28.8278C166.313 28.3449 166.453 27.7878 166.453 27.1563C166.453 26.5063 166.313 25.9492 166.034 25.4849C165.755 25.0021 165.364 24.6306 164.861 24.3706C164.359 24.0921 163.763 23.9528 163.074 23.9528H159.081V30.3599ZM172.627 41.3635V20.6099H186.449V23.9528H176.425V29.2735H185.891V32.6164H176.425V38.0206H186.449V41.3635H172.627ZM188.117 41.3635V20.6099H201.939V23.9528H191.915V29.2735H201.381V32.6164H191.915V38.0206H201.939V41.3635H188.117ZM203.607 41.3635V20.6099H206.567L218.015 35.9871L216.479 36.2935V20.6099H220.277V41.3635H217.289L206.008 25.8749L207.404 25.5685V41.3635H203.607ZM223.187 41.3635V20.6099H237.009V23.9528H226.984V29.2735H236.45V32.6164H226.984V38.0206H237.009V41.3635H223.187ZM238.676 41.3635V20.6099H246.411C247.826 20.6099 249.073 20.8699 250.153 21.3899C251.251 21.8914 252.107 22.6342 252.722 23.6185C253.336 24.5842 253.643 25.7635 253.643 27.1563C253.643 28.5863 253.299 29.8028 252.61 30.8056C251.94 31.8085 251.028 32.5513 249.874 33.0342L254.648 41.3635H250.348L245.238 32.2542L247.696 33.7028H242.474V41.3635H238.676ZM242.474 30.3599H246.467C247.156 30.3599 247.751 30.2299 248.254 29.9699C248.757 29.6913 249.148 29.3106 249.427 28.8278C249.706 28.3449 249.846 27.7878 249.846 27.1563C249.846 26.5063 249.706 25.9492 249.427 25.4849C249.148 25.0021 248.757 24.6306 248.254 24.3706C247.751 24.0921 247.156 23.9528 246.467 23.9528H242.474V30.3599Z" fill="#0B0B0B"/>
<path d="M280.923 -0.844238H0.846191V4.2207H280.923V-0.844238Z" fill="#0B0B0B"/>
<path d="M276.692 58.2466H-3.38452V62.4674H276.692V58.2466Z" fill="#0B0B0B"/>
<path d="M274.154 10.1297L259.769 0.843994H274.154V10.1297Z" fill="#303030"/>
</g>
<mask id="mask1_79_168" style="mask-type:luminance" maskUnits="userSpaceOnUse" x="17" y="8" width="39" height="47">
<path d="M55.8462 8.44165H17.7693V54.0261H55.8462V8.44165Z" fill="white"/>
</mask>
<g mask="url(#mask1_79_168)">
<path fill-rule="evenodd" clip-rule="evenodd" d="M40.7087 24.6797C42.0954 23.9844 43.8598 22.9609 45.6262 21.5586C45.9987 22.3364 46.0395 23.0152 45.8476 23.5632C45.7116 23.9495 45.4554 24.2854 45.1184 24.5527C44.7535 24.8416 44.2977 25.0519 43.794 25.1655C42.8381 25.382 41.7221 25.2556 40.7087 24.6797ZM40.9491 31.804L42.7846 32.8702C39.0368 34.9826 38.0179 38.905 36.8077 42.7253C35.5975 38.905 34.5785 34.9826 30.8308 32.8702L32.6663 31.804C32.8439 31.7365 32.9957 31.6142 33.0999 31.4547C33.2042 31.2951 33.2554 31.1065 33.2466 30.9159C33.0784 27.3379 34.0391 25.7557 35.3349 24.7622C35.7997 24.4064 36.3071 24.2277 36.8077 24.2277C37.3083 24.2277 37.8156 24.4064 38.2806 24.7622C39.5764 25.7557 40.5371 27.3379 40.3689 30.9159C40.36 31.1065 40.4114 31.2951 40.5156 31.4547C40.6198 31.6142 40.7716 31.7365 40.9491 31.804ZM36.8077 8.44165C38.9294 8.49897 41.0564 8.91311 42.9024 9.71894C44.1807 10.2776 45.3735 11.0157 46.4535 11.8981C46.9413 12.2966 47.3429 12.6814 47.7853 13.1245C48.9785 13.1661 50.7223 11.833 51.5319 10.5856C50.1387 15.179 43.7807 20.6034 39.379 22.679C39.3773 22.6783 39.3746 22.6763 39.3746 22.6763C38.5848 22.0697 37.6963 21.7664 36.8077 21.7664C35.919 21.7664 35.0308 22.0697 34.2408 22.6763C34.2408 22.6763 34.2382 22.6784 34.2364 22.679C29.8346 20.6034 23.4768 15.179 22.0835 10.5856C22.8929 11.833 24.6368 13.1661 25.83 13.1245C26.2726 12.6816 26.6742 12.2966 27.1618 11.8981C28.2419 11.0157 29.4346 10.2776 30.7129 9.71894C32.5591 8.91311 34.6861 8.49897 36.8077 8.44165ZM32.9066 24.6797C31.5201 23.9844 29.7556 22.9609 27.9892 21.5586C27.6167 22.3364 27.576 23.0152 27.7677 23.5632C27.9038 23.9495 28.1602 24.2854 28.4969 24.5527C28.862 24.8416 29.3177 25.0519 29.8215 25.1655C30.7773 25.382 31.8931 25.2556 32.9066 24.6797Z" fill="#0B0B0B"/>
<path fill-rule="evenodd" clip-rule="evenodd" d="M47.561 19.8401C48.5335 18.8532 49.3904 17.7609 50.0793 16.7861L50.4293 17.4485C51.5559 19.7151 52.1412 21.9725 52.1412 24.5131L52.1389 28.5446L52.16 30.6345C52.2416 35.7652 53.3455 40.9563 55.8462 45.7067L50.6141 41.464L46.912 47.5053L43.0228 43.8234L36.8077 53.9659L30.5927 43.8236L26.7037 47.5055L23.0016 41.4642L17.7693 45.7069C20.27 40.9563 21.3739 35.7654 21.4556 30.6347L21.4768 28.5448L21.4744 24.5133C21.4744 21.9726 22.0596 19.7151 23.1864 17.4486L23.5362 16.7863C24.2253 17.761 25.082 18.8532 26.0547 19.8403L25.751 20.4747C25.1609 21.7068 24.9655 23.0845 25.4252 24.3948C25.7214 25.2387 26.2622 25.9624 26.9594 26.5149C27.6364 27.0515 28.4375 27.4131 29.2762 27.6031C29.8226 27.7267 30.3793 27.7776 30.9322 27.7603C30.8032 28.4958 30.7468 29.2588 30.7433 30.0362L25.8077 32.9028L29.6164 35.0497C29.9207 35.2213 30.2105 35.4179 30.4827 35.6376C33.6227 38.4727 35.5106 46.8597 36.8079 50.9564C38.1054 46.8597 39.9931 38.4727 43.1332 35.6376C43.4054 35.4179 43.6952 35.2213 43.9996 35.0497L47.8082 32.9028L42.8726 30.0362C42.8689 29.2588 42.8126 28.4958 42.6835 27.7603C43.2366 27.7776 43.7932 27.7267 44.3396 27.6031C45.1783 27.4131 45.9796 27.0515 46.6564 26.5149C47.3534 25.9624 47.8943 25.2387 48.1905 24.3948C48.6503 23.0845 48.4547 21.707 47.8649 20.4747L47.561 19.8401Z" fill="#0B0B0B"/>
</g>
</g>
<defs>
<filter id="filter0_d_79_168" x="-0.0227051" y="0.581787" width="275.046" height="64.322" filterUnits="userSpaceOnUse" color-interpolation-filters="sRGB">
<feFlood flood-opacity="0" result="BackgroundImageFix"/>
<feColorMatrix in="SourceAlpha" type="matrix" values="0 0 0 0 0 0 0 0 0 0 0 0 0 0 0 0 0 0 127 0" result="hardAlpha"/>
<feOffset dy="3"/>
<feComposite in2="hardAlpha" operator="out"/>
<feColorMatrix type="matrix" values="0 0 0 0 0 0 0 0 0 0 0 0 0 0 0 0 0 0 0.5 0"/>
<feBlend mode="normal" in2="BackgroundImageFix" result="effect1_dropShadow_79_168"/>
<feBlend mode="normal" in="SourceGraphic" in2="effect1_dropShadow_79_168" result="shape"/>
</filter>
<clipPath id="clip0_79_168">
<rect width="275" height="65" fill="white"/>
</clipPath>
</defs>
</svg>
