<svg width="673" height="135" viewBox="0 0 673 135" fill="none" xmlns="http://www.w3.org/2000/svg">
<g clip-path="url(#clip0_147_54)">
<g filter="url(#filter0_d_147_54)">
<path d="M98.3843 7.82581V126.742H71.0279V72.7837L51.0652 107.567L34.6514 80.9592V124.958H4.6333V10.9473L33.7641 8.71768L48.4035 49.8924L67.479 7.82581H98.3843ZM158.475 7.82581H188.937L187.901 83.3376C187.458 106.972 174.593 126.742 154.778 126.742C131.414 126.742 113.078 109.499 112.634 86.1618L111.451 8.12309L141.174 8.56903C142.357 52.568 142.948 77.3917 142.948 82.8916C142.948 89.5807 145.462 92.8508 150.638 92.8508C154.926 92.8508 157.144 88.3915 157.292 79.4728L158.475 7.82581ZM272.651 98.2021C272.651 111.431 257.42 126.742 244.407 126.742C222.374 126.742 205.221 117.229 192.948 98.2021L218.677 84.3781C222.522 90.6212 231.099 98.3507 236.57 98.3507C239.675 98.3507 241.154 96.121 241.154 91.513C241.154 87.2023 233.465 82.8916 225.923 78.8782C211.284 70.1081 201.081 55.3923 201.081 41.271C201.081 21.5012 215.572 7.82581 235.239 7.82581C250.618 7.82581 265.997 15.4067 271.911 26.2578L253.575 46.4736C250.026 40.0818 242.485 34.5819 237.014 34.5819C232.134 34.5819 229.62 37.2576 229.62 42.7574C229.62 46.4736 233.317 50.487 240.71 54.9463C251.357 61.4867 257.864 66.392 261.412 69.9595C268.954 77.8377 272.651 87.2023 272.651 98.2021ZM331.841 8.71768H363.485L336.425 62.0813L362.45 124.81H331.841L314.096 92.1076V124.81L286 126.742V10.6501L312.174 8.71768V43.352L331.841 8.71768ZM431.215 94.1887V126.742H371.031V10.6501L399.718 7.82581V94.1887H431.215ZM503.927 94.7832V126.742H439.455V9.75818H500.97V39.7845L470.212 41.7169L471.247 57.176H500.082V81.2565H473.17V94.7832H503.927ZM591.368 98.2021C591.368 111.431 576.137 126.742 563.124 126.742C541.091 126.742 523.938 117.229 511.665 98.2021L537.394 84.3781C541.239 90.6212 549.816 98.3507 555.287 98.3507C558.392 98.3507 559.871 96.121 559.871 91.513C559.871 87.2023 552.182 82.8916 544.64 78.8782C530.001 70.1081 519.798 55.3923 519.798 41.271C519.798 21.5012 534.289 7.82581 553.956 7.82581C569.335 7.82581 584.714 15.4067 590.628 26.2578L572.292 46.4736C568.743 40.0818 561.202 34.5819 555.731 34.5819C550.851 34.5819 548.337 37.2576 548.337 42.7574C548.337 46.4736 552.034 50.487 559.427 54.9463C570.074 61.4867 576.581 66.392 580.13 69.9595C587.671 77.8377 591.368 87.2023 591.368 98.2021ZM599.263 120.363V115.222H601.854C602.062 115.222 602.288 115.283 602.533 115.404C602.778 115.519 602.986 115.701 603.157 115.947C603.332 116.188 603.419 116.495 603.419 116.866C603.419 117.242 603.33 117.562 603.149 117.827C602.97 118.087 602.75 118.285 602.491 118.419C602.237 118.554 601.997 118.621 601.771 118.621H599.9V117.785H601.424C601.577 117.785 601.74 117.709 601.916 117.555C602.097 117.402 602.186 117.172 602.186 116.866C602.186 116.55 602.097 116.337 601.916 116.225C601.74 116.114 601.586 116.058 601.452 116.058H600.385V120.363H599.263ZM602.352 117.939L603.628 120.363H602.395L601.147 117.939H602.352ZM601.202 123.426C600.436 123.426 599.718 123.283 599.048 122.995C598.378 122.707 597.789 122.307 597.281 121.797C596.773 121.286 596.376 120.694 596.089 120.021C595.803 119.348 595.66 118.625 595.66 117.855C595.66 117.084 595.803 116.362 596.089 115.689C596.376 115.015 596.773 114.424 597.281 113.913C597.789 113.402 598.378 113.003 599.048 112.715C599.718 112.427 600.436 112.283 601.202 112.283C601.969 112.283 602.687 112.427 603.358 112.715C604.027 113.003 604.616 113.402 605.124 113.913C605.632 114.424 606.03 115.015 606.316 115.689C606.603 116.362 606.746 117.084 606.746 117.855C606.746 118.625 606.603 119.348 606.316 120.021C606.03 120.694 605.632 121.286 605.124 121.797C604.616 122.307 604.027 122.707 603.358 122.995C602.687 123.283 601.969 123.426 601.202 123.426ZM601.202 122.09C601.979 122.09 602.685 121.899 603.323 121.519C603.961 121.138 604.469 120.627 604.847 119.986C605.226 119.346 605.416 118.635 605.416 117.855C605.416 117.075 605.226 116.365 604.847 115.724C604.469 115.083 603.961 114.572 603.323 114.192C602.685 113.811 601.979 113.62 601.202 113.62C600.427 113.62 599.72 113.811 599.083 114.192C598.445 114.572 597.937 115.083 597.558 115.724C597.179 116.365 596.99 117.075 596.99 117.855C596.99 118.635 597.179 119.346 597.558 119.986C597.937 120.627 598.445 121.138 599.083 121.519C599.72 121.899 600.427 122.09 601.202 122.09Z" fill="white"/>
</g>
</g>
<g filter="url(#filter1_d_147_54)">
<path fill-rule="evenodd" clip-rule="evenodd" d="M665.392 18.5668C672.525 32.6694 666.942 49.9277 652.923 57.1143C652.513 57.3246 652.1 57.5238 651.685 57.7123L651.715 57.734C651.715 57.734 646.275 60.5224 628.707 63.4041C615.627 65.5497 605.896 65.9778 601.778 66.0566C601.214 66.0674 601.043 65.336 601.547 65.078L621.839 54.6754C622.194 54.4933 622.24 54.0003 621.932 53.7461C621.593 53.4666 621.26 53.1785 620.933 52.8821C620.8 52.7618 620.617 52.7129 620.443 52.7533L582.897 61.452C582.347 61.5795 581.994 60.8814 582.42 60.5083L611.493 35.0552C611.628 34.9371 611.696 34.7597 611.677 34.5808C611.632 34.1402 611.596 33.6995 611.571 33.259C611.548 32.8587 611.125 32.6062 610.77 32.7883L590.478 43.1909C589.975 43.4489 589.487 42.8802 589.828 42.4268C592.314 39.1202 598.381 31.4497 607.799 22.0618C620.448 9.45246 625.887 6.66405 625.887 6.66405L625.887 6.7006C626.283 6.47347 626.686 6.25463 627.096 6.04441C641.114 -1.14223 658.26 4.46424 665.392 18.5668ZM646.159 43.7389C652.834 40.3167 655.493 32.0984 652.096 25.3829C648.7 18.6674 640.535 15.9977 633.86 19.4199C627.184 22.8421 624.526 31.0603 627.922 37.7758C631.318 44.4913 639.483 47.1611 646.159 43.7389Z" fill="white"/>
</g>
<defs>
<filter id="filter0_d_147_54" x="0.633301" y="7.82581" width="610.112" height="126.916" filterUnits="userSpaceOnUse" color-interpolation-filters="sRGB">
<feFlood flood-opacity="0" result="BackgroundImageFix"/>
<feColorMatrix in="SourceAlpha" type="matrix" values="0 0 0 0 0 0 0 0 0 0 0 0 0 0 0 0 0 0 127 0" result="hardAlpha"/>
<feOffset dy="4"/>
<feGaussianBlur stdDeviation="2"/>
<feComposite in2="hardAlpha" operator="out"/>
<feColorMatrix type="matrix" values="0 0 0 0 0 0 0 0 0 0 0 0 0 0 0 0 0 0 0.25 0"/>
<feBlend mode="normal" in2="BackgroundImageFix" result="effect1_dropShadow_147_54"/>
<feBlend mode="normal" in="SourceGraphic" in2="effect1_dropShadow_147_54" result="shape"/>
</filter>
<filter id="filter1_d_147_54" x="578.231" y="2.91386" width="94.2637" height="71.1428" filterUnits="userSpaceOnUse" color-interpolation-filters="sRGB">
<feFlood flood-opacity="0" result="BackgroundImageFix"/>
<feColorMatrix in="SourceAlpha" type="matrix" values="0 0 0 0 0 0 0 0 0 0 0 0 0 0 0 0 0 0 127 0" result="hardAlpha"/>
<feOffset dy="4"/>
<feGaussianBlur stdDeviation="2"/>
<feComposite in2="hardAlpha" operator="out"/>
<feColorMatrix type="matrix" values="0 0 0 0 0 0 0 0 0 0 0 0 0 0 0 0 0 0 0.25 0"/>
<feBlend mode="normal" in2="BackgroundImageFix" result="effect1_dropShadow_147_54"/>
<feBlend mode="normal" in="SourceGraphic" in2="effect1_dropShadow_147_54" result="shape"/>
</filter>
<clipPath id="clip0_147_54">
<rect width="611" height="128" fill="white" transform="translate(0 7)"/>
</clipPath>
</defs>
</svg>
