<svg width="301" height="442" viewBox="0 0 301 442" fill="none" xmlns="http://www.w3.org/2000/svg">
<path d="M37.9606 47.1964C40.8492 47.1919 43.2145 47.1883 45.0223 47.4532C46.9006 47.7285 48.5785 48.346 49.6766 49.9181C50.7724 51.4875 50.7805 53.2781 50.4025 55.1437C50.0383 56.9428 49.2339 59.1789 48.2501 61.9137L45.6503 69.1416C45.1433 70.5515 44.7146 71.7436 44.2545 72.6804C43.7655 73.6761 43.17 74.5394 42.246 75.1927C41.3212 75.8465 40.3098 76.1187 39.2096 76.2445C38.1762 76.3628 36.915 76.3647 35.4259 76.3669L20.4018 76.3898C18.9128 76.3921 17.6514 76.394 16.6175 76.2789C15.5171 76.1564 14.5048 75.8873 13.578 75.2363C12.6521 74.5858 12.054 73.7243 11.5619 72.7301C11.099 71.7947 10.6666 70.6039 10.1553 69.1956L7.53363 61.9756C6.54163 59.2438 5.73043 57.0101 5.36053 55.2122C4.97687 53.3478 4.97954 51.5572 6.0707 49.9844C7.16395 48.4089 8.83993 47.7864 10.7175 47.5053C12.5245 47.2349 14.8897 47.2314 17.7783 47.2271L37.9606 47.1964Z" fill="#808080"/>
<path d="M40.7402 37.8589L14.9719 37.8981C14.4721 37.8989 14.0126 37.8996 13.6269 37.9265C13.2125 37.9554 12.7568 38.0205 12.2939 38.213C11.294 38.629 10.5003 39.4251 10.0874 40.4263C9.89625 40.8897 9.83248 41.3456 9.80483 41.7602C9.7791 42.1459 9.7798 42.6052 9.78062 43.105L9.78305 44.7041C9.95257 44.6732 10.1202 44.6457 10.2855 44.621C12.3072 44.3184 14.8521 44.3148 17.5812 44.3108L38.1483 44.2796C40.8773 44.2752 43.4223 44.2711 45.4451 44.5675C45.611 44.5919 45.7793 44.619 45.9497 44.6494L45.9472 43.0503C45.9465 42.5503 45.9458 42.091 45.919 41.7052C45.8899 41.2908 45.8249 40.8351 45.6323 40.3722C45.2164 39.3723 44.4202 38.5786 43.4191 38.1657C42.9557 37.9746 42.4998 37.9108 42.0852 37.8832C41.6995 37.8575 41.2402 37.8582 40.7402 37.8589Z" fill="#B3B3B3"/>
<path d="M34.8924 28.5343L20.7908 28.5557C20.2909 28.5564 19.8314 28.5571 19.4458 28.584C19.0313 28.6129 18.5756 28.678 18.1128 28.8706C17.1128 29.2866 16.3191 30.0827 15.9062 31.0838C15.7151 31.5473 15.6513 32.0032 15.6237 32.4177C15.5979 32.8035 15.5986 33.2627 15.5995 33.7627L15.6013 34.9803L40.1013 34.943L40.0994 33.7256C40.0987 33.2256 40.098 32.7663 40.0712 32.3806C40.0422 31.9661 39.9771 31.5104 39.7846 31.0475C39.3686 30.0476 38.5725 29.2539 37.5713 28.841C37.1079 28.6499 36.652 28.5861 36.2374 28.5585C35.8516 28.5327 35.3924 28.5335 34.8924 28.5343Z" fill="#B3B3B3"/>
<path fill-rule="evenodd" clip-rule="evenodd" d="M38.6606 49.7295C34.2241 49.7362 30.6333 53.3381 30.64 57.7745C30.6468 62.2109 34.2486 65.8018 38.685 65.7951C43.1215 65.7883 46.7123 62.1864 46.7056 57.7501C46.6988 53.3137 43.097 49.7227 38.6606 49.7295ZM41.5264 56.6224C42.1426 56.2894 42.3722 55.5198 42.0392 54.9036C41.7063 54.2873 40.9368 54.0576 40.3204 54.3906C39.2089 54.9912 38.2584 56.2547 37.7003 57.1026C37.5145 56.9545 37.1671 56.7203 36.9615 56.6226C36.3289 56.3219 35.5722 56.5911 35.2717 57.2238C34.9738 57.8506 35.2352 58.5992 35.8555 58.9053C35.8555 58.9053 36.031 59.0151 36.131 59.0958C36.3314 59.2576 36.5986 59.5218 36.8309 59.9146C37.0694 60.318 37.5109 60.557 37.9789 60.5362C38.447 60.5154 38.8656 60.238 39.0674 59.8152C39.1033 59.7443 39.2069 59.5403 39.2775 59.4102C39.4197 59.1487 39.6241 58.7927 39.8733 58.4144C40.4091 57.6004 41.0135 56.8994 41.5264 56.6224Z" fill="#B3B3B3"/>
<path d="M91.3076 44.8374L91.3139 48.9974L88.3339 49.0019L88.3511 60.3219L84.1711 60.3283L84.1543 49.2683L81.0143 49.273L80.6476 44.8536L91.3076 44.8374ZM97.2794 44.3083C100.919 44.3028 103.206 48.3593 103.214 53.6993C103.22 57.7793 101.224 60.3023 97.6237 60.3078C93.7237 60.3137 91.6594 57.4769 91.651 51.9369C91.6442 47.4369 93.6594 44.3138 97.2794 44.3083ZM97.5571 55.9479C98.5371 55.9464 99.2149 54.4654 99.2125 52.8854C99.2086 50.3254 98.5266 49.0464 97.1666 49.0485C96.2266 49.0499 95.7481 50.0306 95.7511 51.9906C95.7546 54.3306 96.4371 55.9496 97.5571 55.9479ZM113.965 44.8029L113.971 48.9629L110.991 48.9675L111.008 60.2874L106.828 60.2938L106.811 49.2338L103.671 49.2386L103.305 44.8191L113.965 44.8029ZM122.434 44.2701L125.858 59.8049L121.058 59.8122L120.434 57.0331L117.914 57.0369L117.399 60.2777L112.739 60.2848L116.374 44.2793L122.434 44.2701ZM118.407 52.8362L120.127 52.8336L119.281 48.4349L118.407 52.8362ZM135.373 55.8704L135.38 60.2504L127.24 60.2628L127.216 44.6428L131.095 44.2569L131.113 55.8769L135.373 55.8704ZM152.953 56.3837C152.956 58.1637 150.899 60.2268 149.139 60.2295C146.159 60.234 143.837 58.9575 142.173 56.4001L145.65 54.5348C146.171 55.374 147.333 56.4122 148.073 56.4111C148.493 56.4104 148.692 56.1101 148.691 55.4901C148.691 54.9101 147.65 54.3317 146.629 53.7933C144.647 52.6163 143.264 50.6384 143.261 48.7384C143.257 46.0784 145.214 44.2354 147.874 44.2314C149.954 44.2282 152.036 45.245 152.838 46.7038L150.362 49.4276C149.881 48.5683 148.86 47.8299 148.12 47.831C147.46 47.832 147.12 48.1925 147.121 48.9325C147.122 49.4325 147.623 49.9718 148.624 50.5702C150.065 51.448 150.946 52.1067 151.427 52.586C152.449 53.6444 152.951 54.9037 152.953 56.3837ZM160.52 44.2121L164.64 44.2059L164.515 54.3661C164.46 57.5462 162.724 60.2088 160.044 60.2129C156.884 60.2177 154.401 57.9015 154.336 54.7616L154.16 44.2618L158.18 44.3157C158.349 50.2355 158.434 53.5753 158.435 54.3153C158.437 55.2153 158.777 55.6548 159.477 55.6537C160.057 55.6529 160.356 55.0524 160.375 53.8524L160.52 44.2121ZM169.987 44.1977C173.127 44.193 174.891 46.2303 174.896 49.7703C174.9 52.5503 173.763 54.332 171.504 55.1355C170.924 55.3563 170.345 55.4572 169.785 55.4581L169.932 60.1979L165.192 60.2051L165.168 44.5051L169.148 44.259C169.448 44.2386 169.647 44.1983 169.787 44.1981L170.007 44.1977L169.987 44.1977ZM169.639 51.6383C170.619 51.5568 171.478 50.9555 171.476 50.0155C171.474 48.8155 170.573 48.0169 169.373 48.0187L169.333 48.0187L169.639 51.6383ZM180.291 44.1821C183.431 44.1773 185.194 46.2146 185.199 49.7546C185.203 52.5346 184.066 54.3164 181.807 55.1198C181.228 55.3407 180.648 55.4416 180.088 55.4424L180.235 60.1822L175.495 60.1894L175.471 44.4894L179.451 44.2434C179.751 44.2229 179.951 44.1826 180.091 44.1824L180.311 44.1821L180.291 44.1821ZM179.942 51.6226C180.922 51.5411 181.781 50.9398 181.779 49.9998C181.778 48.7998 180.876 48.0012 179.676 48.003L179.636 48.0031L179.942 51.6226ZM194.711 55.7802L194.718 60.1602L186.578 60.1725L186.554 44.5526L190.434 44.1667L190.451 55.7866L194.711 55.7802ZM199.899 44.1523L204.18 44.4058L200.291 51.9717L200.303 60.1517L196.143 60.158L196.131 51.978L191.58 44.5449L195.739 44.1586L197.884 47.5553L199.899 44.1523Z" fill="white"/>
<path d="M41.7239 113.465L41.8591 202.393L18.3391 202.429L18.2598 150.237L4.59577 150.257L4.56989 133.233C8.04001 131.996 12.7336 125.157 18.5389 112.828L41.7239 113.465ZM94.737 157.4C101.908 159.517 107.187 169.029 107.204 180.341C107.224 193.445 93.9093 202.314 76.4373 202.34L52.2453 202.377L49.1983 113.566C66.7814 112.979 75.5171 112.741 75.1811 112.742C92.989 112.715 103.754 121.211 103.777 136.107C103.792 146.523 99.9983 155.6 94.737 157.4ZM72.1867 132.235L72.9928 146.793C73.777 146.904 74.5612 147.015 75.5692 147.013C80.6092 147.006 83.1818 144.762 83.1749 140.282C83.1669 135.018 79.2427 132.224 73.5307 132.233L72.1867 132.235ZM75.1777 184.198C82.2337 184.187 85.7016 181.494 85.6934 176.118C85.6853 170.742 82.0972 168.06 74.9292 168.07C74.0332 168.072 73.4732 168.073 73.2494 168.185L73.2737 184.201L75.1777 184.198Z" fill="white"/>
<path d="M24.6243 268.038C25.293 266.979 26.3225 265.749 28.0032 265.747C29.6836 265.744 30.7168 266.971 31.3888 268.028C32.0785 269.113 32.7907 270.676 33.6361 272.53C34.7283 274.927 35.713 277.414 36.9663 279.732C37.6352 280.969 38.8142 281.674 40.2496 281.162C41.0422 280.879 41.8073 280.517 42.5749 280.174C44.1096 279.489 46.0819 278.315 47.8263 278.811C49.2941 279.229 50.3402 280.446 50.6851 281.871C50.8948 282.737 50.7146 283.627 50.5027 284.392C50.2839 285.183 49.9275 286.175 49.4974 287.371L45.5651 298.305C44.7635 300.535 44.1164 302.334 43.4451 303.732C42.0727 306.588 39.9047 308.335 36.7254 308.725C35.2767 308.902 33.4994 308.905 31.3385 308.908L24.7989 308.918C22.6381 308.922 20.8607 308.924 19.4115 308.751C16.231 308.371 14.0576 306.631 12.6766 303.778C12.0013 302.383 11.3486 300.586 10.5401 298.359L6.5748 287.436C6.14112 286.242 5.78138 285.251 5.56013 284.46C5.3461 283.696 5.1631 282.807 5.37012 281.94C5.71078 280.514 6.7531 279.293 8.21961 278.871C9.99235 278.361 11.9879 279.56 13.5499 280.251C14.5798 280.707 15.2617 281.008 15.8035 281.199C17.2404 281.707 18.4173 280.999 19.0824 279.759C20.3287 277.437 21.3059 274.947 22.3907 272.548C23.2304 270.69 23.9378 269.125 24.6243 268.038Z" fill="#B3B3B3"/>
<path fill-rule="evenodd" clip-rule="evenodd" d="M22.0841 297.39C22.0791 294.094 24.7345 291.419 28.0156 291.414L28.0689 291.413C31.3497 291.409 34.0135 294.076 34.0185 297.372C34.0235 300.668 31.3678 303.343 28.0871 303.348L28.0337 303.348C24.7526 303.353 22.0892 300.686 22.0841 297.39Z" fill="#808080"/>
<path fill-rule="evenodd" clip-rule="evenodd" d="M14.078 314.768C14.0761 313.479 15.1191 312.433 16.4078 312.431L39.7411 312.396C41.0298 312.394 42.076 313.437 42.078 314.726C42.0799 316.014 41.0369 317.06 39.7482 317.062L16.4149 317.098C15.1262 317.1 14.08 316.057 14.078 314.768Z" fill="#808080"/>
<path d="M80.7703 283.333L85.8103 283.326L85.8346 299.326L80.7946 299.333L80.7703 283.333ZM98.2651 283.547L98.2889 299.187L94.5086 298.952L91.4408 293.817L91.8291 299.317L87.6691 299.323L87.6455 283.803L91.5455 283.797L94.3754 290.273L94.3648 283.313L98.2651 283.547ZM106.811 283.294L111.011 283.547L107.735 299.292L103.535 299.299L99.8315 283.804L103.771 283.298L105.442 290.416L106.811 283.294ZM121.088 294.972L121.095 299.272L112.375 299.285L112.351 283.545L120.671 283.533L120.677 287.573L116.518 287.839L116.661 289.919L120.561 289.913L120.566 293.153L116.926 293.158L116.928 294.978L121.088 294.972ZM132.916 295.414C132.918 297.194 130.861 299.257 129.101 299.26C126.121 299.264 123.799 297.988 122.136 295.43L125.613 293.565C126.134 294.404 127.296 295.443 128.036 295.441C128.456 295.441 128.655 295.141 128.654 294.521C128.653 293.941 127.612 293.362 126.592 292.824C124.61 291.647 123.227 289.669 123.224 287.769C123.22 285.109 125.177 283.266 127.837 283.262C129.917 283.259 131.999 284.275 132.801 285.734L130.325 288.458C129.844 287.599 128.823 286.86 128.083 286.861C127.423 286.862 127.083 287.223 127.084 287.963C127.085 288.463 127.586 289.002 128.587 289.601C130.028 290.478 130.909 291.137 131.39 291.616C132.411 292.675 132.913 293.934 132.916 295.414ZM144.251 283.757L144.258 287.917L141.278 287.921L141.295 299.241L137.115 299.248L137.098 288.188L133.958 288.192L133.591 283.773L144.251 283.757ZM150.223 283.228C153.863 283.222 156.149 287.279 156.158 292.619C156.164 296.699 154.168 299.222 150.568 299.227C146.668 299.233 144.603 296.396 144.595 290.856C144.588 286.356 146.603 283.233 150.223 283.228ZM150.501 294.867C151.481 294.866 152.159 293.385 152.156 291.805C152.152 289.245 151.471 287.966 150.111 287.968C149.171 287.969 148.692 288.95 148.695 290.91C148.699 293.25 149.381 294.869 150.501 294.867ZM164.794 292.586L167.863 298.561L164.284 299.086L161.617 295.01L161.623 298.95L157.424 299.217L156.96 283.438C156.88 283.418 156.84 283.398 156.84 283.358C156.84 283.258 157.28 283.217 158.18 283.216C164.02 283.207 166.56 283.803 166.568 288.763C166.57 290.083 165.972 291.364 164.794 292.586ZM161.23 290.051C162.25 289.849 162.749 289.369 162.748 288.629L162.748 288.509C162.666 287.729 162.086 287.13 160.965 286.991L161.23 290.051ZM178.191 295.345C178.193 297.125 176.136 299.188 174.376 299.191C171.396 299.196 169.074 297.919 167.411 295.362L170.888 293.496C171.409 294.336 172.571 295.374 173.311 295.373C173.731 295.372 173.93 295.072 173.929 294.452C173.928 293.872 172.887 293.293 171.867 292.755C169.885 291.578 168.502 289.6 168.499 287.7C168.495 285.04 170.452 283.197 173.112 283.193C175.192 283.19 177.274 284.207 178.076 285.665L175.6 288.389C175.119 287.53 174.098 286.791 173.358 286.793C172.698 286.794 172.358 287.154 172.359 287.894C172.36 288.394 172.861 288.933 173.862 289.532C175.303 290.41 176.184 291.068 176.665 291.548C177.686 292.606 178.188 293.865 178.191 295.345Z" fill="white"/>
<path d="M31.7184 351.808C52.1023 351.777 64.9049 374.494 64.9504 404.398C64.9851 427.246 53.8066 441.375 33.6466 441.405C11.8066 441.438 0.246452 425.552 0.19928 394.528C0.160963 369.328 11.4464 351.839 31.7184 351.808ZM33.2735 416.99C38.7615 416.981 42.5569 408.688 42.5434 399.84C42.5216 385.504 38.7027 378.341 31.0867 378.353C25.8227 378.361 23.1431 383.853 23.1598 394.829C23.1797 407.933 27.0015 416.999 33.2735 416.99Z" fill="white"/>
</svg>
