<svg width="306" height="442" viewBox="0 0 306 442" fill="none" xmlns="http://www.w3.org/2000/svg">
<path d="M37.9606 47.2042C40.8492 47.1997 43.2145 47.1961 45.0223 47.461C46.9006 47.7363 48.5785 48.3538 49.6766 49.9259C50.7724 51.4953 50.7805 53.2859 50.4025 55.1515C50.0383 56.9506 49.2339 59.1867 48.2501 61.9215L45.6503 69.1494C45.1433 70.5593 44.7146 71.7514 44.2545 72.6882C43.7655 73.6839 43.17 74.5472 42.246 75.2005C41.3212 75.8543 40.3098 76.1265 39.2096 76.2524C38.1762 76.3706 36.915 76.3725 35.4259 76.3748L20.4018 76.3976C18.9128 76.3999 17.6514 76.4018 16.6175 76.2867C15.5171 76.1642 14.5048 75.8951 13.578 75.2441C12.6521 74.5936 12.054 73.7321 11.5619 72.7379C11.099 71.8025 10.6666 70.6117 10.1553 69.2034L7.53363 61.9834C6.54163 59.2516 5.73043 57.018 5.36053 55.22C4.97687 53.3556 4.97954 51.565 6.0707 49.9922C7.16395 48.4167 8.83993 47.7942 10.7175 47.5132C12.5245 47.2427 14.8897 47.2392 17.7783 47.2349L37.9606 47.2042Z" fill="#808080"/>
<path d="M40.7402 37.8665L14.9719 37.9057C14.4721 37.9064 14.0126 37.9071 13.6269 37.934C13.2125 37.9629 12.7568 38.028 12.2939 38.2206C11.294 38.6366 10.5003 39.4327 10.0874 40.4338C9.89625 40.8973 9.83248 41.3532 9.80483 41.7677C9.7791 42.1535 9.7798 42.6128 9.78062 43.1126L9.78305 44.7116C9.95257 44.6808 10.1202 44.6533 10.2855 44.6285C12.3072 44.326 14.8521 44.3223 17.5812 44.3184L38.1483 44.2871C40.8773 44.2828 43.4223 44.2787 45.4451 44.5751C45.611 44.5994 45.7793 44.6265 45.9497 44.657L45.9472 43.0578C45.9465 42.5579 45.9458 42.0986 45.919 41.7128C45.8899 41.2983 45.8249 40.8427 45.6323 40.3798C45.2164 39.3799 44.4202 38.5862 43.4191 38.1733C42.9557 37.9821 42.4998 37.9184 42.0852 37.8908C41.6995 37.865 41.2402 37.8657 40.7402 37.8665Z" fill="#B3B3B3"/>
<path d="M34.8924 28.5419L20.7908 28.5634C20.2909 28.5641 19.8314 28.5648 19.4458 28.5917C19.0313 28.6206 18.5756 28.6857 18.1128 28.8783C17.1128 29.2942 16.3191 30.0904 15.9062 31.0915C15.7151 31.555 15.6513 32.0109 15.6237 32.4254C15.5979 32.8112 15.5986 33.2704 15.5995 33.7703L15.6013 34.988L40.1013 34.9507L40.0994 33.7333C40.0987 33.2333 40.098 32.774 40.0712 32.3882C40.0422 31.9738 39.9771 31.5181 39.7846 31.0552C39.3686 30.0553 38.5725 29.2616 37.5713 28.8487C37.1079 28.6575 36.652 28.5938 36.2374 28.5662C35.8516 28.5404 35.3924 28.5412 34.8924 28.5419Z" fill="#B3B3B3"/>
<path fill-rule="evenodd" clip-rule="evenodd" d="M38.6606 49.7373C34.2241 49.744 30.6333 53.3459 30.64 57.7823C30.6468 62.2187 34.2486 65.8096 38.685 65.8029C43.1215 65.7961 46.7123 62.1943 46.7056 57.7579C46.6988 53.3215 43.097 49.7306 38.6606 49.7373ZM41.5264 56.6302C42.1426 56.2972 42.3722 55.5277 42.0392 54.9114C41.7063 54.2951 40.9368 54.0654 40.3204 54.3985C39.2089 54.999 38.2584 56.2625 37.7003 57.1104C37.5145 56.9623 37.1671 56.7281 36.9615 56.6304C36.3289 56.3298 35.5722 56.5989 35.2717 57.2316C34.9738 57.8584 35.2352 58.607 35.8555 58.9131C35.8555 58.9131 36.031 59.0229 36.131 59.1036C36.3314 59.2654 36.5986 59.5296 36.8309 59.9224C37.0694 60.3258 37.5109 60.5648 37.9789 60.544C38.447 60.5232 38.8656 60.2458 39.0674 59.823C39.1033 59.7521 39.2069 59.5481 39.2775 59.418C39.4197 59.1565 39.6241 58.8006 39.8733 58.4222C40.4091 57.6082 41.0135 56.9072 41.5264 56.6302Z" fill="#B3B3B3"/>
<path d="M91.3076 44.8452L91.3139 49.0052L88.3339 49.0097L88.3511 60.3297L84.1711 60.3361L84.1543 49.2761L81.0143 49.2808L80.6476 44.8614L91.3076 44.8452ZM97.2794 44.3161C100.919 44.3106 103.206 48.3671 103.214 53.7071C103.22 57.7871 101.224 60.3101 97.6237 60.3156C93.7237 60.3215 91.6594 57.4847 91.651 51.9447C91.6442 47.4447 93.6594 44.3216 97.2794 44.3161ZM97.5571 55.9557C98.5371 55.9542 99.2149 54.4732 99.2125 52.8932C99.2086 50.3332 98.5266 49.0542 97.1666 49.0563C96.2266 49.0577 95.7481 50.0384 95.7511 51.9984C95.7546 54.3384 96.4371 55.9574 97.5571 55.9557ZM113.965 44.8107L113.971 48.9707L110.991 48.9753L111.008 60.2953L106.828 60.3016L106.811 49.2416L103.671 49.2464L103.305 44.827L113.965 44.8107ZM122.434 44.2779L125.858 59.8127L121.058 59.82L120.434 57.0409L117.914 57.0448L117.399 60.2855L112.739 60.2926L116.374 44.2871L122.434 44.2779ZM118.407 52.844L120.127 52.8414L119.281 48.4427L118.407 52.844ZM135.373 55.8782L135.38 60.2582L127.24 60.2706L127.216 44.6506L131.095 44.2647L131.113 55.8847L135.373 55.8782ZM152.953 56.3915C152.956 58.1715 150.899 60.2346 149.139 60.2373C146.159 60.2418 143.837 58.9653 142.173 56.4079L145.65 54.5426C146.171 55.3818 147.333 56.42 148.073 56.4189C148.493 56.4183 148.692 56.118 148.691 55.498C148.691 54.918 147.65 54.3395 146.629 53.8011C144.647 52.6241 143.264 50.6462 143.261 48.7462C143.257 46.0862 145.214 44.2432 147.874 44.2392C149.954 44.236 152.036 45.2529 152.838 46.7116L150.362 49.4354C149.881 48.5761 148.86 47.8377 148.12 47.8388C147.46 47.8398 147.12 48.2003 147.121 48.9403C147.122 49.4403 147.623 49.9796 148.624 50.5781C150.065 51.4559 150.946 52.1145 151.427 52.5938C152.449 53.6522 152.951 54.9115 152.953 56.3915ZM160.52 44.22L164.64 44.2137L164.515 54.3739C164.46 57.554 162.724 60.2166 160.044 60.2207C156.884 60.2255 154.401 57.9093 154.336 54.7694L154.16 44.2696L158.18 44.3235C158.349 50.2433 158.434 53.5831 158.435 54.3231C158.437 55.2231 158.777 55.6626 159.477 55.6616C160.057 55.6607 160.356 55.0602 160.375 53.8602L160.52 44.22ZM169.987 44.2056C173.127 44.2008 174.891 46.2381 174.896 49.7781C174.9 52.5581 173.763 54.3398 171.504 55.1433C170.924 55.3641 170.345 55.465 169.785 55.4659L169.932 60.2057L165.192 60.2129L165.168 44.5129L169.148 44.2668C169.448 44.2464 169.647 44.2061 169.787 44.2059L170.007 44.2055L169.987 44.2056ZM169.639 51.6461C170.619 51.5646 171.478 50.9633 171.476 50.0233C171.474 48.8233 170.573 48.0247 169.373 48.0265L169.333 48.0266L169.639 51.6461ZM180.291 44.1899C183.431 44.1851 185.194 46.2224 185.199 49.7624C185.203 52.5424 184.066 54.3242 181.807 55.1276C181.228 55.3485 180.648 55.4494 180.088 55.4502L180.235 60.19L175.495 60.1972L175.471 44.4972L179.451 44.2512C179.751 44.2307 179.951 44.1904 180.091 44.1902L180.311 44.1899L180.291 44.1899ZM179.942 51.6304C180.922 51.5489 181.781 50.9476 181.779 50.0076C181.778 48.8076 180.876 48.009 179.676 48.0108L179.636 48.0109L179.942 51.6304ZM194.711 55.788L194.718 60.168L186.578 60.1804L186.554 44.5604L190.434 44.1745L190.451 55.7945L194.711 55.788ZM199.899 44.1601L204.18 44.4136L200.291 51.9795L200.303 60.1595L196.143 60.1658L196.131 51.9858L191.58 44.5527L195.739 44.1664L197.884 47.5631L199.899 44.1601Z" fill="white"/>
<path d="M41.7239 113.473L41.8591 202.401L18.3391 202.436L18.2598 150.244L4.59577 150.265L4.56989 133.241C8.04001 132.004 12.7336 125.165 18.5389 112.836L41.7239 113.473ZM94.737 157.408C101.908 159.525 107.187 169.037 107.204 180.349C107.224 193.453 93.9093 202.321 76.4373 202.348L52.2453 202.385L49.1983 113.573C66.7814 112.987 75.5171 112.749 75.1811 112.75C92.989 112.723 103.754 121.218 103.777 136.114C103.792 146.53 99.9983 155.608 94.737 157.408ZM72.1867 132.242L72.9928 146.801C73.777 146.912 74.5612 147.023 75.5692 147.021C80.6092 147.014 83.1818 144.77 83.1749 140.29C83.1669 135.026 79.2427 132.232 73.5307 132.24L72.1867 132.242ZM75.1777 184.206C82.2337 184.195 85.7016 181.502 85.6934 176.126C85.6853 170.75 82.0972 168.067 74.9292 168.078C74.0332 168.08 73.4732 168.08 73.2494 168.193L73.2737 184.209L75.1777 184.206Z" fill="white"/>
<path d="M30.0135 261.038C30.6823 259.979 31.7117 258.749 33.3925 258.746C35.0729 258.744 36.1061 259.971 36.7781 261.028C37.4678 262.112 38.18 263.675 39.0254 265.53C40.1176 267.926 41.1023 270.414 42.3555 272.732C43.0245 273.969 44.2035 274.674 45.6389 274.162C46.4315 273.879 47.1965 273.516 47.9642 273.174C49.4989 272.489 51.4711 271.314 53.2156 271.811C54.6834 272.228 55.7294 273.446 56.0744 274.871C56.2841 275.737 56.1039 276.626 55.892 277.392C55.6732 278.183 55.3167 279.175 54.8866 280.371L50.9544 291.305C50.1528 293.535 49.5057 295.334 48.8344 296.731C47.462 299.588 45.294 301.334 42.1147 301.725C40.666 301.902 38.8887 301.905 36.7278 301.908L30.1881 301.918C28.0274 301.921 26.25 301.924 24.8008 301.751C21.6203 301.37 19.4469 299.631 18.0659 296.778C17.3905 295.383 16.7379 293.586 15.9294 291.359L11.9641 280.436C11.5304 279.242 11.1707 278.251 10.9494 277.46C10.7354 276.695 10.5524 275.807 10.7594 274.94C11.1001 273.514 12.1424 272.293 13.6089 271.871C15.3816 271.361 17.3772 272.56 18.9392 273.251C19.969 273.707 20.651 274.008 21.1928 274.199C22.6297 274.706 23.8066 273.998 24.4717 272.759C25.718 270.437 26.6952 267.947 27.78 265.547C28.6197 263.69 29.3271 262.125 30.0135 261.038Z" fill="#B3B3B3"/>
<path fill-rule="evenodd" clip-rule="evenodd" d="M27.4734 290.39C27.4684 287.094 30.1237 284.418 33.4049 284.413L33.4582 284.413C36.739 284.408 39.4028 287.076 39.4078 290.371C39.4128 293.667 36.7571 296.343 33.4763 296.348L33.423 296.348C30.1419 296.353 27.4784 293.685 27.4734 290.39Z" fill="#808080"/>
<path fill-rule="evenodd" clip-rule="evenodd" d="M19.4673 307.768C19.4653 306.479 20.5084 305.433 21.7971 305.431L45.1304 305.396C46.4191 305.394 47.4653 306.437 47.4673 307.725C47.4692 309.014 46.4262 310.06 45.1375 310.062L21.8042 310.098C20.5155 310.1 19.4693 309.057 19.4673 307.768Z" fill="#808080"/>
<path d="M86.1596 276.333L91.1995 276.325L91.2239 292.325L86.1839 292.333L86.1596 276.333ZM103.654 276.547L103.678 292.186L99.8979 291.952L96.83 286.817L97.2184 292.316L93.0584 292.323L93.0348 276.803L96.9348 276.797L99.7647 283.272L99.7541 276.312L103.654 276.547ZM115.296 288.449C115.299 290.229 113.242 292.292 111.482 292.295C108.502 292.299 106.18 291.023 104.516 288.465L107.993 286.6C108.515 287.439 109.676 288.477 110.416 288.476C110.836 288.476 111.036 288.175 111.035 287.555C111.034 286.975 109.993 286.397 108.972 285.858C106.991 284.681 105.608 282.704 105.605 280.804C105.601 278.144 107.558 276.301 110.218 276.297C112.298 276.293 114.379 277.31 115.182 278.769L112.706 281.493C112.224 280.633 111.203 279.895 110.463 279.896C109.803 279.897 109.464 280.258 109.465 280.998C109.466 281.498 109.967 282.037 110.967 282.635C112.409 283.513 113.29 284.172 113.771 284.651C114.792 285.71 115.294 286.969 115.296 288.449ZM116.463 276.287L121.503 276.279L121.528 292.279L116.488 292.287L116.463 276.287ZM125.118 276.274C129.938 276.267 132.482 279.243 132.491 284.603C132.498 289.543 130.002 292.266 125.142 292.274C124.322 292.275 123.602 292.216 123.022 292.077L122.219 276.638C123.058 276.397 124.018 276.276 125.118 276.274ZM126.515 287.272C127.774 286.91 128.592 285.529 128.59 284.149C128.588 282.749 127.666 281.53 126.386 281.312L126.515 287.272ZM142.611 287.947L142.618 292.247L133.898 292.261L133.874 276.521L142.194 276.508L142.2 280.548L138.04 280.814L138.184 282.894L142.084 282.888L142.089 286.128L138.449 286.134L138.451 287.954L142.611 287.947ZM150.954 285.615L154.023 291.59L150.444 292.115L147.778 288.039L147.784 291.979L143.584 292.246L143.12 276.466C143.04 276.447 143 276.427 143 276.387C143 276.287 143.44 276.246 144.34 276.245C150.18 276.236 152.721 276.832 152.728 281.792C152.73 283.112 152.132 284.393 150.954 285.615ZM147.39 283.08C148.41 282.878 148.909 282.398 148.908 281.658L148.908 281.538C148.827 280.758 148.246 280.159 147.126 280.02L147.39 283.08ZM164.351 288.374C164.354 290.154 162.297 292.217 160.537 292.22C157.557 292.225 155.235 290.948 153.571 288.391L157.048 286.525C157.569 287.365 158.731 288.403 159.471 288.402C159.891 288.401 160.091 288.101 160.09 287.481C160.089 286.901 159.048 286.322 158.027 285.784C156.045 284.607 154.662 282.629 154.659 280.729C154.655 278.069 156.612 276.226 159.272 276.222C161.352 276.219 163.434 277.236 164.236 278.694L161.76 281.418C161.279 280.559 160.258 279.82 159.518 279.822C158.858 279.823 158.518 280.183 158.52 280.923C158.52 281.423 159.021 281.962 160.022 282.561C161.463 283.439 162.344 284.097 162.825 284.577C163.847 285.635 164.349 286.894 164.351 288.374Z" fill="white"/>
<path d="M37.1076 344.808C57.4916 344.777 70.2942 367.493 70.3396 397.397C70.3744 420.245 59.1959 434.374 39.0359 434.405C17.1959 434.438 5.63573 418.552 5.58856 387.528C5.55025 362.328 16.8357 344.839 37.1076 344.808ZM38.6628 409.989C44.1507 409.981 47.9461 401.687 47.9327 392.839C47.9109 378.503 44.092 371.341 36.476 371.353C31.212 371.361 28.5324 376.853 28.549 387.829C28.569 400.933 32.3908 409.999 38.6628 409.989Z" fill="white"/>
</svg>
